# xmcd
#
# Track frame offsets:
#	150
#	14563
#	29829
#	43460
#	58855
#	74013
#	85989
#	95692
#	113103
#	124038
#	148274
#	161819
#	172720
#	188402
#	200023
#	209827
#	225437
# Disc length: 3211 seconds
# Revision: 1
# Processed by: cddbd v1.5.1PL2 Copyright (c) Steve Scherf et al.
#
# Submitted via: libkcddb 0.21
#
DISCID=070c8911
DTITLE=Los Yobos - Under the S in Yorkshire
DYEAR=2004
DGENRE=Western Swing
TTITLE0=Take Me Back To Tulsa
TTITLE1=Don't Get Around Much Anymore
TTITLE2=Hi Flyer Stomp
TTITLE3=I'm Blue, I'm Lonesome
TTITLE4=Under The X In Texas
TTITLE5=Que Nadie Sepa Mi Sufrir
TTITLE6=Settin' The Woods on Fire
TTITLE7=Dim Lights Thick Smoke
TTITLE8=Choo Choo Ch' Boogie
TTITLE9=Ramblin' Man
TTITLE10=I'm An Old Cowhand (from the Rio Grande)
TTITLE11=Coyote
TTITLE12=Brain Cloudy Blues
TTITLE13=Baton Rouge
TTITLE14=Everybody's Truckin'
TTITLE15=You Win Again
TTITLE16=Under The S In Yorkshire (Bonus track)
EXTD=
EXTT0=
EXTT1=
EXTT2=
EXTT3=
EXTT4=
EXTT5=
EXTT6=
EXTT7=
EXTT8=
EXTT9=
EXTT10=
EXTT11=
EXTT12=
EXTT13=
EXTT14=
EXTT15=
EXTT16=
PLAYORDER=
